<?xml version="1.0" encoding="iso-8859-1"?>
<!-- Generator: Adobe Illustrator 18.0.0, SVG Export Plug-In . SVG Version: 6.00 Build 0)  -->
<!DOCTYPE svg PUBLIC "-//W3C//DTD SVG 1.1//EN" "http://www.w3.org/Graphics/SVG/1.1/DTD/svg11.dtd">
<svg version="1.1" id="Capa_1" xmlns="http://www.w3.org/2000/svg" xmlns:xlink="http://www.w3.org/1999/xlink" x="0px" y="0px"
	 viewBox="0 0 297 297" style="enable-background:new 0 0 297 297;" xml:space="preserve">
<path d="M286.969,142.989c5.54,0,10.031-4.492,10.031-10.031V70.788c0-5.54-4.492-10.031-10.031-10.031h-18.391V43.291
	c0-3.273-1.597-6.341-4.279-8.218l-27.329-19.13c-3.454-2.418-8.05-2.418-11.505,0l-27.329,19.13
	c-2.682,1.877-4.279,4.945-4.279,8.218v17.466h-8.358V43.291c0-3.274-1.598-6.342-4.28-8.219l-27.34-19.13
	c-3.455-2.417-8.051-2.417-11.505,0.002l-27.321,19.13c-2.681,1.877-4.278,4.944-4.278,8.217v17.466h-8.36V43.291
	c0-3.274-1.598-6.341-4.279-8.218l-27.333-19.13c-3.454-2.418-8.052-2.418-11.505,0l-27.327,19.13
	c-2.682,1.877-4.279,4.945-4.279,8.218v17.466H10.031C4.492,60.757,0,65.248,0,70.788v62.169c0,5.54,4.492,10.031,10.031,10.031
	h17.661v42.107H10.031C4.492,185.096,0,189.587,0,195.127v62.169c0,5.54,4.492,10.031,10.031,10.031h17.661v5.511
	c0,5.54,4.492,10.031,10.031,10.031h54.661c5.54,0,10.031-4.492,10.031-10.031v-5.511h8.36v5.511c0,5.54,4.492,10.031,10.031,10.031
	h54.661c5.54,0,10.031-4.492,10.031-10.031v-5.511h8.358v5.511c0,5.54,4.492,10.031,10.031,10.031h54.659
	c5.54,0,10.031-4.492,10.031-10.031v-5.511h18.391c5.54,0,10.031-4.492,10.031-10.031v-62.169c0-5.54-4.492-10.031-10.031-10.031
	h-18.391v-42.107H286.969z M269.308,80.819h7.629v42.107h-7.629V80.819z M269.308,205.158h7.629v42.107h-7.629V205.158z
	 M186.225,80.819h7.631v42.107h-7.631V80.819z M103.145,80.819h7.63v42.107h-7.63V80.819z M20.063,122.926V80.819h7.629v42.107
	H20.063z M20.063,247.265v-42.107h7.629v42.107H20.063z M47.754,48.514l17.297-12.108l17.301,12.109v214.293H47.754V48.514z
	 M102.415,142.989h8.36v42.107h-8.36V142.989z M103.145,247.265v-42.107h7.63v42.107H103.145z M130.838,48.514l17.291-12.108
	l17.307,12.11v214.292h-34.598V48.514z M185.498,142.989h8.358v42.107h-8.358V142.989z M186.225,247.265v-42.107h7.631v42.107
	H186.225z M213.919,48.515l17.298-12.109l17.298,12.109v214.293h-34.596V48.515z"/>
<g>
</g>
<g>
</g>
<g>
</g>
<g>
</g>
<g>
</g>
<g>
</g>
<g>
</g>
<g>
</g>
<g>
</g>
<g>
</g>
<g>
</g>
<g>
</g>
<g>
</g>
<g>
</g>
<g>
</g>
</svg>
