<?xml version="1.0" encoding="iso-8859-1"?>
<!-- Generator: Adobe Illustrator 19.0.0, SVG Export Plug-In . SVG Version: 6.00 Build 0)  -->
<svg version="1.1" id="Layer_1" xmlns="http://www.w3.org/2000/svg" xmlns:xlink="http://www.w3.org/1999/xlink" x="0px" y="0px"
	 viewBox="0 0 502 502" style="enable-background:new 0 0 502 502;" xml:space="preserve" height="24px" width="24px">
<g>
	<g>
		<g>
			<path d="M492,90H10c-5.523,0-10,4.478-10,10v302c0,5.522,4.477,10,10,10h482c5.522,0,10-4.478,10-10V100
				C502,94.478,497.522,90,492,90z M482,392H20V110h462V392z"/>
			<path d="M50,370h36h136.2h57.6H416h36c5.522,0,10-4.478,10-10v-36V178v-36c0-5.522-4.478-10-10-10h-36H279.8h-57.6H86H50
				c-5.523,0-10,4.478-10,10v36v146v36C40,365.522,44.477,370,50,370z M235.109,350c3.333-5.277,9.202-8.8,15.891-8.8
				s12.558,3.523,15.891,8.8H235.109z M442,350h-13.997c2.638-6.307,7.691-11.36,13.997-13.997V350z M442,152v13.997
				c-6.307-2.638-11.36-7.691-13.997-13.997H442z M266.891,152c-3.333,5.277-9.202,8.8-15.891,8.8s-12.558-3.523-15.891-8.8H266.891
				z M60,152h13.997c-2.638,6.307-7.691,11.359-13.997,13.997V152z M60,186.905c17.351-3.861,31.043-17.554,34.905-34.905h118.601
				c4.422,16.563,19.556,28.8,37.494,28.8c17.937,0,33.071-12.236,37.493-28.8h118.602c3.861,17.351,17.555,31.044,34.905,34.905
				v128.189c-17.351,3.861-31.044,17.555-34.905,34.905H288.493c-4.422-16.563-19.556-28.8-37.493-28.8
				c-17.938,0-33.072,12.236-37.494,28.8H94.905c-3.862-17.35-17.554-31.043-34.905-34.904V186.905z M60,336.003
				c6.307,2.638,11.36,7.691,13.997,13.997H60V336.003z"/>
			<path d="M110.173,314.687c1.237,0.512,2.536,0.761,3.824,0.761c2.603,0,5.161-1.016,7.074-2.929l54.447-54.447
				c3.905-3.905,3.905-10.237,0-14.143l-54.447-54.447c-2.86-2.859-7.162-3.715-10.898-2.168c-3.737,1.548-6.173,5.194-6.173,9.239
				v108.895C104,309.492,106.437,313.139,110.173,314.687z M124,220.695L154.305,251L124,281.305V220.695z"/>
			<path d="M354,320.5c5.522,0,10-4.478,10-10V293c0-5.522-4.478-10-10-10c-5.522,0-10,4.478-10,10v17.5
				C344,316.022,348.478,320.5,354,320.5z"/>
			<path d="M354,268c5.522,0,10-4.478,10-10v-66.5c0-5.522-4.478-10-10-10c-5.522,0-10,4.478-10,10V258
				C344,263.522,348.478,268,354,268z"/>
			<path d="M391,261c2.63,0,5.21-1.07,7.069-2.931C399.93,256.21,401,253.63,401,251s-1.07-5.21-2.931-7.07
				C396.21,242.07,393.63,241,391,241s-5.21,1.069-7.07,2.93c-1.86,1.861-2.93,4.44-2.93,7.07s1.069,5.21,2.93,7.069
				C385.79,259.93,388.37,261,391,261z"/>
		</g>
	</g>
</g>
<g>
</g>
<g>
</g>
<g>
</g>
<g>
</g>
<g>
</g>
<g>
</g>
<g>
</g>
<g>
</g>
<g>
</g>
<g>
</g>
<g>
</g>
<g>
</g>
<g>
</g>
<g>
</g>
<g>
</g>
</svg>
